<svg id="グループ_4" data-name="グループ 4" xmlns="http://www.w3.org/2000/svg" xmlns:xlink="http://www.w3.org/1999/xlink" width="166.027" height="213.828" viewBox="0 0 166.027 213.828">
  <defs>
    <clipPath id="clip-path">
      <rect id="長方形_14" data-name="長方形 14" width="166.027" height="213.828" fill="none"/>
    </clipPath>
  </defs>
  <g id="グループ_3" data-name="グループ 3" clip-path="url(#clip-path)">
    <path id="パス_74" data-name="パス 74" d="M32.222,411.738c-.229,4.059,0,7.91,1.927,11.15l-.015.006,21.113,44.528s16.64-5.151,6.893-15.794c-5.26-5.745-4.583-17-2.85-26.138,1.451-9.195-.385-18.738-7.887-21.654-14.88-5.786-19.071,5.939-19.182,7.9" transform="translate(-23.462 -293.549)" fill="#343c4f"/>
    <path id="パス_75" data-name="パス 75" d="M67.732,399.926c-1.059.876-7.817,7.553-8.947,8.455-7.535,6.809-18.206-.405-18.206-.405s-9.882-6.048-7.263-15.2a43.935,43.935,0,0,1,2.493-5.635c1.6-3.2,6.667-4.73,7.227-5.674Z" transform="translate(-23.992 -278.386)" fill="#343c4f"/>
    <path id="パス_76" data-name="パス 76" d="M93.813,249.586l2.851,2.493s26.582,15.762-23.268,54.083l-25.384-20.3s14.146-26.349,17.495-30.341,12.186-15.489,28.306-5.931" transform="translate(-35.038 -179.439)" fill="#dd3636"/>
    <path id="パス_77" data-name="パス 77" d="M64.916,414.086c-4.048-4.139-11.806-10.825-25.133-18.138.967-2.054,1.614-3.467,2.656-5.424a88.187,88.187,0,0,1,27.028,19.61c-1.873,1.591-3.156,2.782-4.55,3.953" transform="translate(-29.033 -284.994)" fill="#c12727"/>
    <path id="パス_78" data-name="パス 78" d="M374.481,618.369l4.691-3.573c-12.409-3.285-19.538,3.589-22.892,8.47-5.607.844-9.949.078-12.89-2.321-4.26-3.468-4.5-9.45-4.506-9.574a3.562,3.562,0,0,0-7.122.136c.008.379.237,9.285,7.052,14.9a18.3,18.3,0,0,0,6.766,3.486,27.759,27.759,0,0,0,11.194.51c21.809,5.608,23.876-12.761,23.876-12.761Z" transform="translate(-242.112 -443.62)" fill="#2f3548"/>
    <path id="パス_79" data-name="パス 79" d="M176.825,634.188,187.551,661.6c-.451.657-3.453,5.985-2.869,8.288.466,1.84,6.425,4.71,14,.446l.428-6.844-1.945-25.332Z" transform="translate(-129.042 -462.814)" fill="#2f3548"/>
    <path id="パス_80" data-name="パス 80" d="M165.947,606.295s5.155,10.556,8.694,20.318c0,0,.921,1.636,7.688,1.848a27.448,27.448,0,0,0,12.553-2.95l-.828-21.394c-1.317-6.452-5.844-10.659-16.226-10.575-12.233.1-13.012,7.961-11.88,12.753" transform="translate(-120.832 -433.151)" fill="#a08c60"/>
    <path id="パス_81" data-name="パス 81" d="M222.332,620.154c1.249,19.666-32.72,15.51-32.72,15.51-25.325-1.9-30.3-10.748-28.7-17.973l34.828,4.359Z" transform="translate(-117.23 -450.775)" fill="#b2a169"/>
    <path id="パス_82" data-name="パス 82" d="M261.113,618.1c1.968,19.6-29.721,17.381-29.721,17.381-26.095-.652-19.676-16.51-2.713-17.55Z" transform="translate(-156.069 -450.953)" fill="#bcab6f"/>
    <path id="パス_83" data-name="パス 83" d="M60.711,458.564a1.425,1.425,0,0,1-.352,1.983L16.633,491.14a1.424,1.424,0,0,1-1.987-.349L.259,470.228a1.419,1.419,0,0,1,.349-1.983l43.729-30.6A1.422,1.422,0,0,1,46.32,438Z" transform="translate(0 -319.193)" fill="#82929d"/>
    <path id="パス_84" data-name="パス 84" d="M64.7,457.129a1.357,1.357,0,0,1-.331,1.894l-42.1,29.459a1.363,1.363,0,0,1-1.893-.333L7.136,469.223a1.354,1.354,0,0,1,.333-1.889l42.1-29.464a1.367,1.367,0,0,1,1.9.336Z" transform="translate(-5.028 -319.368)" fill="#95a2ad"/>
    <path id="パス_85" data-name="パス 85" d="M25.034,548.681l-3.466,2.426-1.458-2.079L23.58,546.6Z" transform="translate(-14.676 -398.897)" fill="#ebe9d8"/>
    <rect id="長方形_10" data-name="長方形 10" width="4.231" height="2.538" transform="translate(9.895 147.012) rotate(-34.94)" fill="#ebe9d8"/>
    <rect id="長方形_11" data-name="長方形 11" width="4.231" height="2.541" transform="translate(14.351 143.89) rotate(-34.94)" fill="#ebe9d8"/>
    <path id="パス_86" data-name="パス 86" d="M74.992,513.737l-3.468,2.427-1.454-2.079,3.466-2.424Z" transform="translate(-51.136 -373.396)" fill="#ebe9d8"/>
    <path id="パス_87" data-name="パス 87" d="M91.481,502.195l-3.466,2.424-1.458-2.078,3.468-2.426Z" transform="translate(-63.167 -364.971)" fill="#ebe9d8"/>
    <path id="パス_88" data-name="パス 88" d="M107.988,490.648l-3.464,2.428-1.456-2.083,3.464-2.429Z" transform="translate(-75.216 -356.542)" fill="#ebe9d8"/>
    <path id="パス_89" data-name="パス 89" d="M136.08,454.464a1.134,1.134,0,0,1-.276,1.58l-10.529,7.364a1.134,1.134,0,0,1-1.3-1.861l10.527-7.362a1.129,1.129,0,0,1,1.575.278" transform="translate(-90.123 -331.303)" fill="#4e3c33"/>
    <path id="パス_90" data-name="パス 90" d="M33.922,561.36l-3.471,2.431-2.426-3.471,3.468-2.428Z" transform="translate(-20.452 -407.136)" fill="#ebe9d8"/>
    <path id="パス_91" data-name="パス 91" d="M50.417,549.829l-3.471,2.428-2.426-3.47,3.468-2.426Z" transform="translate(-32.489 -398.72)" fill="#ebe9d8"/>
    <path id="パス_92" data-name="パス 92" d="M66.909,538.281l-3.468,2.432-2.427-3.471,3.468-2.428Z" transform="translate(-44.526 -390.294)" fill="#ebe9d8"/>
    <path id="パス_93" data-name="パス 93" d="M83.874,526.426,80.4,528.852l-2.424-3.466,3.468-2.428Z" transform="translate(-56.906 -381.642)" fill="#ebe9d8"/>
    <rect id="長方形_12" data-name="長方形 12" width="4.235" height="4.236" transform="matrix(0.819, -0.573, 0.573, 0.819, 25.526, 140.622)" fill="#ebe9d8"/>
    <path id="パス_94" data-name="パス 94" d="M116.862,503.338l-3.466,2.423-2.429-3.468,3.468-2.426Z" transform="translate(-80.981 -364.79)" fill="#ebe9d8"/>
    <path id="パス_95" data-name="パス 95" d="M135.646,490.186l-3.468,2.427-2.427-3.466,3.471-2.429Z" transform="translate(-94.689 -355.194)" fill="#ebe9d8"/>
    <path id="パス_96" data-name="パス 96" d="M147.585,484.136l-5.819,4.066-5.589-7.989L142,476.142Z" transform="translate(-99.379 -347.476)" fill="#ebe9d8"/>
    <path id="パス_97" data-name="パス 97" d="M45.631,578.1l-3.471,2.429-2.424-3.471,3.466-2.425Z" transform="translate(-28.998 -419.351)" fill="#ebe9d8"/>
    <path id="パス_98" data-name="パス 98" d="M62.117,566.548l-3.466,2.428-2.429-3.469,3.468-2.43Z" transform="translate(-41.029 -410.919)" fill="#ebe9d8"/>
    <path id="パス_99" data-name="パス 99" d="M78.608,555.019l-3.471,2.423-2.429-3.466,3.471-2.424Z" transform="translate(-53.061 -402.509)" fill="#ebe9d8"/>
    <path id="パス_100" data-name="パス 100" d="M95.56,543.152l-3.468,2.423-2.429-3.467,3.473-2.424Z" transform="translate(-65.434 -393.847)" fill="#ebe9d8"/>
    <path id="パス_101" data-name="パス 101" d="M112.072,531.6l-3.473,2.432-2.424-3.471,3.466-2.428Z" transform="translate(-77.484 -385.418)" fill="#ebe9d8"/>
    <path id="パス_102" data-name="パス 102" d="M128.559,520.063l-3.468,2.431-2.429-3.472,3.473-2.425Z" transform="translate(-89.515 -376.999)" fill="#ebe9d8"/>
    <path id="パス_103" data-name="パス 103" d="M57.489,595.042l-3.468,2.431L51.592,594l3.468-2.428Z" transform="translate(-37.651 -431.717)" fill="#ebe9d8"/>
    <path id="パス_104" data-name="パス 104" d="M73.978,583.511,70.5,585.936l-2.427-3.469,3.471-2.426Z" transform="translate(-49.682 -423.298)" fill="#ebe9d8"/>
    <path id="パス_105" data-name="パス 105" d="M95.053,560.109,87,565.738l-2.431-3.465,8.052-5.632Z" transform="translate(-61.72 -406.223)" fill="#ebe9d8"/>
    <path id="パス_106" data-name="パス 106" d="M123.924,548.558l-3.466,2.425-2.426-3.467,3.471-2.429Z" transform="translate(-86.136 -397.791)" fill="#ebe9d8"/>
    <path id="パス_107" data-name="パス 107" d="M140.429,537.016l-3.471,2.433-2.424-3.469L138,533.551Z" transform="translate(-98.18 -389.372)" fill="#ebe9d8"/>
    <rect id="長方形_13" data-name="長方形 13" width="4.233" height="4.232" transform="translate(43.977 127.716) rotate(-34.991)" fill="#ebe9d8"/>
    <path id="パス_108" data-name="パス 108" d="M180.339,483.827l-3.468,2.424-2.427-3.466,3.468-2.433Z" transform="translate(-127.305 -350.548)" fill="#ebe9d8"/>
    <path id="パス_109" data-name="パス 109" d="M192.21,500.784l-3.468,2.428-2.424-3.468,3.466-2.429Z" transform="translate(-135.97 -362.927)" fill="#ebe9d8"/>
    <path id="パス_110" data-name="パス 110" d="M160.79,513.3l-8.48,5.934-2.429-3.468,8.482-5.936Z" transform="translate(-109.379 -372.057)" fill="#ebe9d8"/>
    <path id="パス_111" data-name="パス 111" d="M292.241,631.573l12.839,29.091c-.51.627-3.339,6.508-2.4,10.049.537,2.021,7.547,4.123,14.461.971l.277-9.589L314.14,629.6Z" transform="translate(-213.27 -459.467)" fill="#3f4662"/>
    <path id="パス_112" data-name="パス 112" d="M308.315,614.219a209.248,209.248,0,0,0,1.172,21.051s-1.724,2.619-10.022,3.737-9.408.115-9.408.115l-8.946-18.965c-3.169-7.434.756-13.163,10.758-14.967,11.4-2.057,14.94,1.167,16.447,9.029" transform="translate(-204.364 -441.21)" fill="#bcab6f"/>
    <path id="パス_113" data-name="パス 113" d="M296.626,672.127c.544-4.366,8.487-8.56,8.487-8.56-8.4.048-12.734,2.39-13.749,3.846l6.959,14.753s.494.444,3.266.412c-1.472-1.775-5.406-6.894-4.962-10.452" transform="translate(-212.629 -484.254)" fill="#b2a169"/>
    <path id="パス_114" data-name="パス 114" d="M154.47,610.406c-.243,3.51.821,4.224,2.152,6.445,0,0,1.006,2.641,13.91,4.1,10.324,1.171,33.319,1.448,46.2-1.1,1.213-1.543,1.709-5.019,1.744-7.163-3.974,1.5-18.421,3.327-47.334,1.775a55.813,55.813,0,0,1-16.672-4.062" transform="translate(-112.703 -445.459)" fill="#b97e4b"/>
    <path id="パス_115" data-name="パス 115" d="M218.279,604.721c-27.531,4.31-59.594.225-64.963-1.865a8.517,8.517,0,0,0,.28,3.37s7.364,2.377,27.565,3.611l-.249,7.752,3.457.031.555-7.544c2.424.111,8.136.015,11.632-.095l-1.067,7.507,3.81-.09,1.459-7.685c2.731-.133,5.882-.317,8.616-.527l-1.071,7.447,4.006-.486,1.355-7.465a10.6,10.6,0,0,0,4.038-.816,6.122,6.122,0,0,0,.577-3.146" transform="translate(-111.866 -439.949)" fill="#bcab6f"/>
    <path id="パス_116" data-name="パス 116" d="M209.138,622.5a4.853,4.853,0,1,1-5.746-3.8,4.877,4.877,0,0,1,5.746,3.8" transform="translate(-145.614 -451.44)" fill="#a67241"/>
    <path id="パス_117" data-name="パス 117" d="M210.963,628.037a3.026,3.026,0,1,1-3.583-2.37,3.039,3.039,0,0,1,3.583,2.37" transform="translate(-149.585 -456.55)" fill="#8e744f"/>
    <path id="パス_118" data-name="パス 118" d="M169.1,613.329l1.863,9.528-2.4-.4-3.39-9.833Z" transform="translate(-120.538 -447.08)" fill="#bcab6f"/>
    <path id="パス_119" data-name="パス 119" d="M207.292,220.81s-16.713-13.966-48.764-14.015c0,0-48.224.346-54.465,23.594a29.562,29.562,0,0,0,.439,15.052,44.515,44.515,0,0,0-4.057,11.568c-2.462,18.175,10.356,32.7,12.4,41.056s1.418,19.791,1.418,19.791c9.742,5.921,45.639,5.321,65.346,2.41,0,0-2.58-15.107,4.1-22.019,28.889-29.9,48.257-62.27,23.588-77.438" transform="translate(-73.074 -150.914)" fill="#e83e37"/>
    <path id="パス_120" data-name="パス 120" d="M408.308,276.756c11.839,18.131-1.886,44.64-31.533,69.866C370.93,351.6,368.834,366.3,368,372.2c2.523-.26,4.906-.554,7.089-.877,0,0,.393-15.107,7.071-22.019,24.419-25.272,39.909-52.31,29.221-69.233-1.03-1.211-2.058-2.32-3.069-3.315" transform="translate(-268.555 -201.969)" fill="#dd3636"/>
    <path id="パス_121" data-name="パス 121" d="M522.218,421.924c.2,4.142-.069,8.069-2.066,11.357l.015.006-21.939,45.231s-16.927-5.4-6.889-16.174c5.417-5.813,4.828-17.3,3.144-26.637-1.4-9.392.561-19.11,8.24-22.017,15.231-5.767,19.4,6.23,19.5,8.235" transform="translate(-356.246 -300.766)" fill="#3f4662"/>
    <path id="パス_122" data-name="パス 122" d="M477.791,411.517c1.037.942,7.608,8.066,8.716,9.039,7.356,7.3,18.571.449,18.571.449s10.356-5.7,8.12-15.143a44.83,44.83,0,0,0-2.273-5.86c-1.477-3.342-6.57-5.135-7.1-6.124Z" transform="translate(-348.68 -287.441)" fill="#3f4662"/>
    <path id="パス_123" data-name="パス 123" d="M396.027,255.008l-3.167,2.261s-23.532,21.04,4.858,41.394c4.769,3.419,10.529,9.294,16.651,14.891L441.2,294.066s-9.436-16.579-13.408-24.4c-5.206-10.256-13.307-23.625-31.761-14.654" transform="translate(-280.019 -183.942)" fill="#e83e37"/>
    <path id="パス_124" data-name="パス 124" d="M494.08,427.041c4.321-4.026,12.543-10.471,26.469-17.293-.887-2.139-1.48-3.609-2.449-5.653a89.948,89.948,0,0,0-28.47,18.7c1.833,1.71,3.084,2.984,4.45,4.243" transform="translate(-357.319 -294.898)" fill="#c92e28"/>
    <path id="パス_125" data-name="パス 125" d="M220.115,499.269l-4.644-.226V486.209h4.644Z" transform="translate(-157.246 -354.823)" fill="#b33c34"/>
    <path id="パス_126" data-name="パス 126" d="M224.716,471.783s-9.4,6.979-9.4,14.124v-9.13s-1.382-4.994,9.4-4.994" transform="translate(-157.09 -344.295)" fill="#b44b4b"/>
    <path id="パス_127" data-name="パス 127" d="M160.245,248.245l-19.692.861-16.565-.245s-18.383,10.608-31.059,36.567c3.758.651,15.728,3.495,20.526,6.786l-7.26,4.741s12.146,8.992,19.817,20.11c11.245-10.614,33.035-17.028,33.035-17.028l-7.365-7.5c13.009-8.419,32.664-7.892,32.664-7.892-1.466-20.548-24.1-36.4-24.1-36.4" transform="translate(-67.818 -181.163)" fill="#c92e28"/>
    <path id="パス_128" data-name="パス 128" d="M199.93,268.018l-22.8,17.029S178.9,314.1,187.8,328.566c7.932-18.453,29.907-44.31,29.907-44.31Z" transform="translate(-129.263 -195.593)" fill="#3b435b"/>
    <path id="パス_129" data-name="パス 129" d="M248.957,202.753c2.443-26.391-34.889-28.677-34.889-28.677l-8.111,5.368s-31.471,58.579-8.309,67.681c42.775-11.888,41.5-35.661,41.5-35.661l3.4-.314c-2.354-3.452-1.862-9.3-1.862-9.3Z" transform="translate(-138.03 -127.036)" fill="#71482c"/>
    <path id="パス_130" data-name="パス 130" d="M122.056,208.011l6.735-1.186a53.2,53.2,0,0,1-2.744,9.028l3.845-.317s-7.711,22.859,18.628,31.556c-2.092-18.273,5.166-54.453,16.592-73.017,0,0-36.332,2.737-43.056,33.935" transform="translate(-89.073 -127.036)" fill="#65422a"/>
    <path id="パス_131" data-name="パス 131" d="M137.068,142.488c-5.166,3.29-13.457,20.574-11.116,23.537s14.423-9.53,19.586-12.824,7.447-8.361,5.108-11.317-8.415-2.692-13.579.6" transform="translate(-91.619 -102.044)" fill="#343c4f"/>
    <path id="パス_132" data-name="パス 132" d="M156.881,141c-7.008-23.877,1.316-42.437,28.137-42.637h.679c32.4,1.427,29.036,33.12,24.519,43.141l-21.271,25.444c0,12.076-4.1,16.688-17.545,16.688h-1.046c-13.446,0-11.362-10.029-9.539-18.95Z" transform="translate(-112.761 -71.781)" fill="#3b435b"/>
    <path id="パス_133" data-name="パス 133" d="M165.066,138.147c-13.615-15.413-4.119-38.735,23.61-39.07h.646c29.517,1.474,28.587,30.667,23.335,41.487l-20.243,24.215c0,11.493-3.9,15.883-16.7,15.883h-1c-12.8,0-6.1-22-8.736-39.976Z" transform="translate(-115.976 -72.304)" fill="#3f4662"/>
    <path id="パス_134" data-name="パス 134" d="M181.931,283.073l.721-31.032,8.086,4.415L204.53,251.7l-8.84,31.375Z" transform="translate(-132.769 -183.683)" fill="#515775"/>
    <path id="パス_135" data-name="パス 135" d="M187.787,350.912l-1.357,4.17-13.45-.12.287-4.122c-2.764,0-3.976,5.267-3.509,8.3.434,2.826,1.458,5.334,6.583,5.815l4.955.083c5.66,0,10.278,0,10.82-6.461,0,0,.85-7.741-4.33-7.669" transform="translate(-123.814 -256.034)" fill="#2f343c"/>
    <path id="パス_136" data-name="パス 136" d="M341.084,144.06c-5.161-3.3-11.242-3.563-13.579-.6s-.048,8.023,5.111,11.317,17.25,14.922,19.586,11.965-5.954-19.388-11.118-22.678" transform="translate(-238.335 -103.191)" fill="#3f4662"/>
    <path id="パス_137" data-name="パス 137" d="M163.948,230.079s.738-11.547-8.482-7.724Z" transform="translate(-113.455 -161.703)" fill="#3f4662"/>
    <path id="パス_138" data-name="パス 138" d="M158.387,232.6s.309,8.787,6.277,5.572Z" transform="translate(-115.587 -169.743)" fill="#ebe9d8"/>
    <path id="パス_139" data-name="パス 139" d="M154.727,219.321a.462.462,0,0,0-.125.6,2.874,2.874,0,0,0,.37.577,11.921,11.921,0,0,0,.987,1.03l2.133,1.956c1.428,1.313,2.867,2.642,4.229,4.111l.045.044c.08.139.186.148.239.132s.2-.045.544-.995c.1-.316.184-.648.273-.988a6,6,0,0,1,.182,1.056,3.579,3.579,0,0,1-.078,1.161,1.558,1.558,0,0,1-.309.634,1.092,1.092,0,0,1-.684.392,1.8,1.8,0,0,1-1.021-.2l.045.045a25.047,25.047,0,0,1-4.524-3.9,15.827,15.827,0,0,1-1.9-2.524,7.724,7.724,0,0,1-.73-1.538,2.7,2.7,0,0,1-.165-.927.88.88,0,0,1,.135-.491.4.4,0,0,1,.358-.178" transform="translate(-112.556 -160.053)" fill="#2f343c"/>
    <path id="パス_140" data-name="パス 140" d="M168.989,239.613a2.5,2.5,0,0,0,0,3.1,1.641,1.641,0,0,0,2.6,0Z" transform="translate(-122.93 -174.863)" fill="#2f343c"/>
    <path id="パス_141" data-name="パス 141" d="M264.589,230.626s-.823-11.547,9.457-7.724Z" transform="translate(-193.079 -162.102)" fill="#3f4662"/>
    <path id="パス_142" data-name="パス 142" d="M276.083,232.212s-.375,8.949-7.62,5.675Z" transform="translate(-195.917 -169.462)" fill="#ebe9d8"/>
    <path id="パス_143" data-name="パス 143" d="M269.675,218.69a.516.516,0,0,1,.435.182.791.791,0,0,1,.163.5,2.4,2.4,0,0,1-.2.944,7.4,7.4,0,0,1-.888,1.566,16.86,16.86,0,0,1-2.312,2.57,29.573,29.573,0,0,1-5.49,3.967l.055-.046a2.752,2.752,0,0,1-.669.34,1.81,1.81,0,0,1-.819.1,1.415,1.415,0,0,1-.83-.4,1.521,1.521,0,0,1-.375-.646,3.171,3.171,0,0,1-.094-1.182,5.2,5.2,0,0,1,.219-1.075c.11.346.212.684.331,1.006a2.988,2.988,0,0,0,.43.827.592.592,0,0,0,.232.186c.067.016.085-.012.127-.035a1.578,1.578,0,0,0,.412-.33l-.014.016.067-.061c1.654-1.5,3.4-2.85,5.136-4.187l2.59-1.992a13.717,13.717,0,0,0,1.2-1.049,3.022,3.022,0,0,0,.451-.588.426.426,0,0,0-.154-.614" transform="translate(-188.746 -159.593)" fill="#2f343c"/>
    <path id="パス_144" data-name="パス 144" d="M273.5,239.357a2.233,2.233,0,1,1-3.158,3.158Z" transform="translate(-197.291 -174.677)" fill="#2f343c"/>
    <path id="パス_145" data-name="パス 145" d="M251.432,31.159c.085.026,34.6-4.858,23.1-31.159,14.535,16.154,5.757,32.109-5.011,41.478C260.706,49.151,253.106,51.9,253.106,51.9a11.082,11.082,0,1,1-1.674-20.745" transform="translate(-173.237)" fill="#efd0a7"/>
    <path id="パス_146" data-name="パス 146" d="M116.24,12.793c-9.049,19.528,9.263,27.686,9.334,27.664,4.727-.346,8.471,2.906,8.513,8.55.054,7.057-3.614,10.616-7.333,11.515-2.835.686-4.667.049-5.8-.866,0,0-28.29-19.085-4.715-46.864" transform="translate(-77.983 -9.336)" fill="#efd0a7"/>
  </g>
</svg>
